<svg xmlns="http://www.w3.org/2000/svg" width="162.24" height="49.856" viewBox="0 0 162.24 49.856">
  <g id="Group_200" data-name="Group 200" transform="translate(-870.184 -21.905)">
    <g id="micromodernlogo-org" transform="translate(870.183 21.905)">
      <g id="_274989ff" data-name="#274989ff" transform="translate(0.04)">
        <path id="Path_3" data-name="Path 3" d="M20.56,102.342c1.825-2.6,5.544-4.239,8.47-2.438,5.474,3.61,7.3,10.271,10.562,15.6,2.351-4.915,4.491-10.145,8.407-14.062,1.832-1.88,4.758-2.941,7.259-1.809a12.576,12.576,0,0,1,4.907,5.222,37.557,37.557,0,0,1,4.3,18.615c-1.707-.079-3.405-.126-5.112-.157-.488-4.034-.716-8.509-3.476-11.757a4.009,4.009,0,0,0-5.513-.645c-4.034,2.973-5.332,8.093-7.235,12.473A47.867,47.867,0,0,1,35.7,123.2c-1.77-4.459-3.39-9.4-7.314-12.465a3.662,3.662,0,0,0-5.143.59c-2.745,3.366-2.973,7.92-3.728,12.025q-2.418.012-4.837.086A31.655,31.655,0,0,1,20.56,102.342Z" transform="translate(-14.592 -99.144)" fill="#056854"></path>
        <path id="Path_4" data-name="Path 4" d="M83.44,103.08c1.4.063,2.8.11,4.207.157,1.557,7.039,3.256,14.077,4.255,21.226-1-.118-2-.228-3-.338-1.188-4.75-1.589-9.689-3.264-14.305-.519,4.75.063,9.54-.346,14.3-.346.094-1.038.3-1.384.4C83.637,117.378,84.407,110.2,83.44,103.08Z" transform="translate(-29.295 -99.984)" fill="#056854"></path>
        <path id="Path_5" data-name="Path 5" d="M105.087,103.325c1.361-.079,2.721-.173,4.082-.275-1.077,7.062-.613,14.211-.637,21.32-.936,0-1.864-.008-2.8-.008-.134-5.08.22-10.184-.291-15.249-1.691,4.263-2.005,8.895-3.327,13.267a3.26,3.26,0,0,1-1.864,2.265C101.556,117.473,103.286,110.38,105.087,103.325Z" transform="translate(-32.885 -99.978)" fill="#056854"></path>
        <path id="Path_6" data-name="Path 6" d="M126.51,103.23c1.077.008,2.155.016,3.232.039-.307,6.394-.291,12.8-.016,19.2l-3.217.047A83.669,83.669,0,0,0,126.51,103.23Z" transform="translate(-38.493 -100.016)" fill="#056854"></path>
        <path id="Path_7" data-name="Path 7" d="M147.228,104.156c2.957-1.691,6.48-1.235,9.72-.967.1.944.2,1.9.307,2.839-2.674-1.416-6.111-2.76-8.816-.629-4.593,3.759-3.657,13.157,2.477,14.848,2.5.747,4.947-.606,7.322-1.243-2.155,3.594-6.929,4.569-10.593,2.808C141.125,118.579,140.905,107.71,147.228,104.156Z" transform="translate(-41.933 -99.951)" fill="#056854"></path>
        <path id="Path_8" data-name="Path 8" d="M173.358,103.312c3.476.165,7.857-1.29,10.648,1.376,2.163,3.272-1.132,6.323-3.594,8.132,2.029,3.452,4.844,6.354,6.881,9.807-5.922.181-6.205-7.77-11.128-9.673-.118,3.177-.071,6.362-.055,9.54h-2.76q.425-9.579.008-19.181m2.855,1.125a34.37,34.37,0,0,0,.087,7.99,18.713,18.713,0,0,0,3.657-.849c1.935-1.109,2.32-3.861,1.423-5.749C180.459,103.886,177.911,104.728,176.213,104.437Z" transform="translate(-48.496 -99.98)" fill="#056854"></path>
        <path id="Path_9" data-name="Path 9" d="M203.6,103.256c4-1.046,9.359-.275,11.223,3.924,2.005,4.852.983,11.655-3.972,14.337-4,2.029-10,1.5-12.292-2.815-2.76-5.222-1.384-13.731,5.041-15.446m.086,1.589c-4.483,2.988-4.247,10.106-1.486,14.2,2.249,3.044,7.872,2.918,9.492-.7a13.178,13.178,0,0,0-.409-11.474C209.865,104.2,206.271,103.6,203.691,104.845Z" transform="translate(-53.592 -99.932)" fill="#056854"></path>
        <path id="Path_10" data-name="Path 10" d="M119.951,132.317c3.633-1.172,8.564-.818,10.735,2.768,2.556,4.522,1.494,11.3-3.177,14.054-4.011,2.2-10.35,1.172-12.033-3.547-1.659-4.632-.739-11.4,4.475-13.275m.755,1.337c-3.948,2.4-3.822,8.171-2.2,11.962,1.494,3.728,7.377,4.436,9.5.944a12.159,12.159,0,0,0,.126-10.5C126.942,133.237,123.317,132.38,120.706,133.654Z" transform="translate(-35.976 -106.1)" fill="#056854"></path>
        <path id="Path_11" data-name="Path 11" d="M140.42,132.222c3.885-.2,7.982-1.109,11.734.307,6.386,3.248,5.4,14.03-1.038,16.7-3.4,1.361-7.149.692-10.7.566a124.755,124.755,0,0,0,0-17.569m3.083.794a69.9,69.9,0,0,0-.173,15.493c3.02.4,6.874.692,8.816-2.178,2.234-3.563,2.1-9.021-1.188-11.915C148.9,132.623,146.019,133.009,143.5,133.017Z" transform="translate(-41.464 -106.107)" fill="#056854"></path>
        <path id="Path_12" data-name="Path 12" d="M164.45,132.248a58.106,58.106,0,0,1,8.91-.1c.393.582.786,1.172,1.188,1.762a40.986,40.986,0,0,0-7.275-.551c-.063,2.139-.079,4.286-.055,6.425,2.194.086,4.4.173,6.59.417a29.12,29.12,0,0,1-6.551,1.447c-.087,2.359-.079,4.727.024,7.086a28.451,28.451,0,0,0,7.99-.786c-.094.464-.291,1.408-.385,1.88a57.822,57.822,0,0,1-10.436.024A84.394,84.394,0,0,0,164.45,132.248Z" transform="translate(-46.595 -106.165)" fill="#056854"></path>
        <path id="Path_13" data-name="Path 13" d="M182.17,132.17c3.209.063,7.015-1.07,9.783.959,2.454,3.051-1.015,6.056-2.981,8.2,2.013,3.02,4.349,5.812,6.37,8.832-5.678.189-5.788-7.518-10.641-8.91-.024,2.894.055,5.78.2,8.667l-2.69.024c.134-5.922.181-11.852-.039-17.774m2.485,1.4c-.008,2.289.039,4.577.126,6.866,1.321-.228,2.886.063,3.964-.912a4.554,4.554,0,0,0,1.125-4.994C188.7,132.744,186.4,132.948,184.655,133.57Z" transform="translate(-50.38 -106.141)" fill="#056854"></path>
        <path id="Path_14" data-name="Path 14" d="M200.413,131.94c1.274.378,2.957.142,3.767,1.423,3.256,4.168,5.568,9.013,9.068,13.008a126.55,126.55,0,0,0-.236-14.242c.425.008,1.274.016,1.7.016-.33,6.04.094,12.1-.456,18.128a6.776,6.776,0,0,1-2.446-1.762c-3.279-4.451-6.056-9.272-9.524-13.6-.425,5.01.016,10.035.047,15.045-.519-.016-1.565-.039-2.092-.055A81.173,81.173,0,0,0,200.413,131.94Z" transform="translate(-54.239 -106.147)" fill="#056854"></path>
      </g>
      <g id="_00afefff" data-name="#00afefff" transform="translate(0 25.548)">
        <path id="Path_15" data-name="Path 15" d="M14.587,131.654c1.636.071,3.264.11,4.9.11.724,4.145,1.117,8.7,3.885,12.072a3.63,3.63,0,0,0,5.379.33c3.555-3.224,5.159-7.927,6.842-12.284a39.875,39.875,0,0,1,7.566-.134c1.927,4.058,3.161,8.667,6.457,11.891,1.589,1.7,4.7,2.178,6.189.094,2.587-3.366,2.91-7.8,3.531-11.852a51.114,51.114,0,0,1,5.143-.2c.149,7.353-1.471,15.092-5.993,21.029-1.856,2.627-5.544,4.333-8.494,2.4-5.474-3.492-7.5-10.082-10.578-15.469-2.485,4.813-4.554,9.98-8.344,13.959-1.974,2.037-5.324,3.154-7.912,1.6-2.855-1.707-4.436-4.821-5.717-7.77A36.556,36.556,0,0,1,14.587,131.654Z" transform="translate(-14.541 -131.629)" fill="#056854"></path>
        <path id="Path_16" data-name="Path 16" d="M83.679,132.147l1.4-.417c.008,6.04-.44,12.127.566,18.12H82.24C83.341,144,83.255,138.045,83.679,132.147Z" transform="translate(-28.999 -131.651)" fill="#056854"></path>
        <path id="Path_17" data-name="Path 17" d="M91.02,131.906c1,.031,1.99.071,2.988.11.48,2.721.794,5.513,2,8.03q.908-3.775,1.754-7.573c.4-.2,1.2-.6,1.6-.8-1.046,5.167-2.532,10.239-3.437,15.438a5.957,5.957,0,0,1-1.25,3.051C93.725,144.017,92.223,137.993,91.02,131.906Z" transform="translate(-30.874 -131.638)" fill="#056854"></path>
        <path id="Path_18" data-name="Path 18" d="M107.108,132.071c.9-.031,1.809-.047,2.713-.071.22,5.977.087,12.025,1.455,17.884q-2.418-.024-4.837.016C107.6,144.017,107.093,138.016,107.108,132.071Z" transform="translate(-34.167 -131.709)" fill="#056854"></path>
      </g>
    </g>
  </g>
</svg>